HIERARCHY
ROOT hip
{
	OFFSET 0.000000 0.000000 0.000000 
	CHANNELS 6 Xposition Yposition Zposition Xrotation Zrotation Yrotation
	JOINT abdomen
	{
		OFFSET 0.000000 3.402643 0.000000 
		CHANNELS 3 Xrotation Zrotation Yrotation
		JOINT chest
		{
			OFFSET 0.000000 8.438565 -0.680529 
			CHANNELS 3 Xrotation Zrotation Yrotation
			JOINT neck
			{
				OFFSET 0.000000 10.207942 -0.272212 
				CHANNELS 3 Xrotation Zrotation Yrotation
				JOINT head
				{
					OFFSET 0.000000 3.130431 0.000000 
					CHANNELS 3 Xrotation Zrotation Yrotation
					End Site
					{
						OFFSET 0.000000 3.130435 0.000000 
					}
				}
			}
			JOINT lCollar
			{
				OFFSET 3.470700 6.669187 -0.816635 
				CHANNELS 3 Yrotation Zrotation Xrotation
				JOINT lShldr
				{
					OFFSET 3.198488 0.000000 0.000000 
					CHANNELS 3 Zrotation Yrotation Xrotation
					JOINT lForeArm
					{
						OFFSET 10.139888 0.000000 0.000000 
						CHANNELS 3 Yrotation Zrotation Xrotation
						JOINT lHand
						{
							OFFSET 8.370511 0.000000 0.000000 
							CHANNELS 3 Zrotation Yrotation Xrotation
							End Site
							{
								OFFSET 4.083176 0.000000 0.000000 
							}
						}
					}
				}
			}
			JOINT rCollar
			{
				OFFSET -3.470700 6.669187 -0.816635 
				CHANNELS 3 Yrotation Zrotation Xrotation
				JOINT rShldr
				{
					OFFSET -3.198488 0.000000 0.000000 
					CHANNELS 3 Zrotation Yrotation Xrotation
					JOINT rForeArm
					{
						OFFSET -10.139888 0.000000 0.000000 
						CHANNELS 3 Yrotation Zrotation Xrotation
						JOINT rHand
						{
							OFFSET -8.370511 0.000000 0.000000 
							CHANNELS 3 Zrotation Yrotation Xrotation
							End Site
							{
								OFFSET -4.083176 0.000000 0.000000 
							}
						}
					}
				}
			}
		}
	}
	JOINT lThigh
	{
		OFFSET 5.308129 -1.633274 1.361059 
		CHANNELS 3 Xrotation Zrotation Yrotation
		JOINT lShin
		{
			OFFSET -2.041588 -20.007561 0.000000 
			CHANNELS 3 Xrotation Zrotation Yrotation
			JOINT lFoot
			{
				OFFSET 0.000000 -19.190928 -1.224953 
				CHANNELS 3 Xrotation Yrotation Zrotation
				End Site
				{
					OFFSET 0.000000 -2.449906 4.627600 
				}
			}
		}
	}
	JOINT rThigh
	{
		OFFSET -5.308129 -1.633274 1.361059 
		CHANNELS 3 Xrotation Zrotation Yrotation
		JOINT rShin
		{
			OFFSET 2.041588 -20.007561 0.000000 
			CHANNELS 3 Xrotation Zrotation Yrotation
			JOINT rFoot
			{
				OFFSET 0.000000 -19.190928 -1.224953 
				CHANNELS 3 Xrotation Yrotation Zrotation
				End Site
				{
					OFFSET 0.000000 -2.449906 4.627600 
				}
			}
		}
	}
}
MOTION
Frames: 13
Frame Time: 0.016667
0.041380 48.848534 0.200631 -2.130868 0.594882 -3.007955 0.000000 0.000000 0.000000 13.759192 -0.839843 0.039058 -0.564668 0.887232 3.262234 -8.185403 -0.487289 3.652460 1.992188 -2.001953 0.000341 -48.729542 0.970569 -30.394594 -31.924318 -0.353914 -0.074596 -12.414448 -2.658896 27.280249 -2.001953 1.992188 0.000000 53.045811 12.802871 -35.136684 3.320427 0.222913 -0.029285 -4.079023 8.351013 50.293510 -7.531713 -1.951836 -0.674123 18.103058 -0.341737 1.675717 -8.498126 0.085750 1.985240 -8.006577 -7.088655 -2.749659 19.295815 0.009744 7.549443 -9.540055 -0.321692 5.346613 
0.260803 48.815407 -0.029690 -1.711360 0.555739 -3.261849 0.000000 0.000000 0.000000 13.534331 -0.966797 0.048821 -0.567714 0.945532 3.467291 -7.751184 -0.107191 3.759759 1.992188 -2.001953 0.000341 -51.551476 -0.508938 -28.337709 -29.326599 -0.342595 -0.068112 -13.600798 -2.215411 29.838562 -2.001953 1.992188 0.000000 57.011932 12.846526 -33.910374 2.900505 0.223127 -0.029297 -4.394351 8.068100 50.276150 -8.219869 -2.128481 -0.757524 18.111994 -0.361275 1.916244 -8.263181 0.080225 2.195663 -8.744324 -7.280073 -2.743122 19.328424 0.023657 7.737609 -9.283646 -0.305889 5.522484 
0.485797 48.782978 -0.289592 -0.976770 0.331444 -3.408259 0.000000 0.000000 0.000000 13.075626 -0.800781 0.039059 -0.595171 0.964987 3.506513 -7.714884 0.302106 3.691457 1.992188 -2.001953 0.000341 -54.663830 -2.670591 -27.099377 -25.908566 -0.321694 -0.061488 -14.205455 -1.308983 32.324581 -2.001953 1.992188 0.000000 60.760372 13.321444 -33.781673 1.552808 0.214314 -0.019560 -5.226755 8.414108 50.580788 -9.187731 -2.050603 -0.739365 18.004725 -0.390566 1.936176 -7.917655 0.074892 2.426326 -9.712374 -7.232797 -2.662614 19.138723 0.029512 7.302995 -8.824469 -0.285279 5.901246 
0.710779 48.750546 -0.549478 -0.230648 0.097469 -3.544917 0.000000 0.000000 0.000000 12.626624 -0.644531 0.029295 -0.612836 0.984441 3.545573 -7.669299 0.721220 3.613609 1.992188 -2.001953 0.000341 -57.839203 -4.753800 -25.738726 -22.490536 -0.309617 -0.054137 -14.759279 -0.378867 34.789463 -2.001953 1.992188 0.000000 64.522820 13.789692 -33.614704 0.195349 0.214810 -0.009802 -6.058016 8.755919 50.879784 -10.160417 -1.991831 -0.692063 17.896723 -0.416805 1.937114 -7.567874 0.075964 2.680780 -10.681320 -7.185927 -2.553745 18.929958 0.029812 6.856851 -8.384983 -0.285895 6.258348 
0.898431 48.726429 -0.744612 -0.442454 -0.087630 -4.414073 0.000000 0.000000 0.000000 13.095304 -0.781250 0.029294 -0.581291 1.071735 3.897262 -7.359479 1.062005 3.887498 1.992188 -2.001953 0.000341 -60.092449 -5.771576 -24.363092 -19.707331 -0.302507 -0.055161 -15.664275 0.592524 35.389370 -2.001953 1.992188 0.000000 67.832489 14.412191 -33.046265 -0.185547 0.214844 0.000000 -6.873894 8.123304 50.485916 -10.240531 -1.992073 -0.694688 18.122953 -0.419914 2.736030 -7.534984 0.061910 2.759732 -10.678919 -7.145125 -2.505657 18.856041 0.029439 6.737207 -8.059648 -0.270237 6.431047 
1.086077 48.702312 -0.939736 -0.648697 -0.272280 -5.273517 0.000000 0.000000 0.000000 13.563828 -0.917969 0.039057 -0.547948 1.168655 4.248954 -7.045933 1.412301 4.151775 1.992188 -2.001953 0.000341 -62.379250 -6.738756 -22.935661 -16.924088 -0.308052 -0.046713 -16.556339 1.574858 35.970837 -2.001953 1.992188 0.000000 71.161674 14.989395 -32.442432 -0.566406 0.224610 -0.000038 -7.700579 7.486786 50.091022 -10.328131 -2.001653 -0.686549 18.348944 -0.410251 3.517301 -7.465154 0.044766 2.804778 -10.672527 -7.108495 -2.467950 18.773142 0.029754 6.597672 -7.729665 -0.243807 6.597433 
1.306929 48.705673 -1.111006 -0.864597 -0.330302 -5.849737 0.000000 0.000000 0.000000 14.032445 -1.113281 0.039055 -0.536253 1.178304 4.307736 -6.530836 1.948168 4.084647 1.992188 -2.001953 0.000341 -64.987167 -8.051702 -22.110048 -14.316608 -0.302841 -0.037849 -16.926249 2.064038 36.402252 -2.001953 1.992188 0.000000 73.768120 14.773113 -32.299702 -0.566406 0.224610 -0.000038 -8.357619 6.646309 49.598656 -10.191593 -2.197158 -0.761745 18.061596 -0.409770 4.173130 -7.139389 0.049723 2.942813 -10.379269 -7.166886 -2.512846 18.503462 0.019706 5.943250 -7.447449 -0.233279 6.789135 
1.527779 48.709011 -1.282274 -1.079263 -0.388164 -6.435729 0.000000 0.000000 0.000000 14.500830 -1.318359 0.048815 -0.513825 1.197671 4.376083 -6.016735 2.493894 4.007756 1.992188 -2.001953 0.000341 -67.619606 -9.338420 -21.217390 -11.709133 -0.296789 -0.028687 -17.287634 2.545517 36.831940 -2.001953 1.992188 0.000000 76.379753 14.540001 -32.162663 -0.566406 0.224610 -0.000038 -9.011516 5.808606 49.112602 -10.044226 -2.372717 -0.829132 17.764036 -0.415926 4.818784 -6.807353 0.030562 3.058971 -10.095813 -7.225268 -2.538547 18.225636 0.003728 5.248513 -7.166128 -0.244147 6.992233 
1.747839 48.529480 -1.418821 -1.034790 -0.252168 -6.709091 0.000000 0.000000 0.000000 14.608600 -1.513672 0.029287 -0.513706 1.129841 4.151315 -5.759459 2.728577 3.735066 1.992188 -2.001953 0.000341 -70.149391 -10.118913 -20.745659 -10.244291 -0.297524 -0.028829 -17.048038 2.963861 36.339840 -2.001953 1.992188 0.000000 78.489784 14.203290 -33.597984 -0.566406 0.224610 -0.000038 -10.150418 5.045257 50.103687 -10.453857 -2.724024 -0.878063 18.179619 -0.426250 5.199174 -6.872344 0.045026 3.215784 -11.746194 -7.606229 -2.173650 21.885847 -0.077932 2.180920 -8.858794 -0.197731 7.588340 
1.967896 48.349945 -1.555355 -0.992782 -0.106623 -6.992212 0.000000 0.000000 0.000000 14.706739 -1.718750 0.009761 -0.513233 1.061967 3.916790 -5.503828 2.973091 3.461996 1.992188 -2.001953 0.000341 -72.690880 -10.888575 -20.239964 -8.779449 -0.298263 -0.028953 -16.815607 3.385566 35.847637 -2.001953 1.992188 0.000000 80.599106 13.914746 -35.038525 -0.566406 0.224610 -0.000038 -11.308818 4.310557 51.098984 -10.868654 -3.074131 -0.924193 18.585947 -0.435086 5.589594 -6.949530 0.040275 3.374840 -13.406548 -7.987439 -1.768816 25.560112 0.009564 -0.871515 -10.536332 -0.171542 8.204223 
2.156741 48.053604 -1.565255 -1.599671 -0.096958 -6.855493 0.000000 0.000000 0.000000 15.322556 -1.708984 -0.010053 -0.494139 0.984346 3.633450 -4.713908 3.071536 3.149428 1.992188 -2.001953 0.000341 -74.820061 -11.618831 -19.613174 -7.900544 -0.298707 -0.029018 -16.673712 3.509937 35.099613 -2.001953 1.992188 0.000000 81.726410 12.528264 -35.940514 -0.566406 0.224610 -0.000038 -11.070285 4.006254 50.693604 -11.143412 -3.415352 -0.884353 20.467733 -0.429736 5.449759 -7.968618 0.112341 3.505935 -13.483181 -8.084132 -1.156751 29.504656 -0.156884 -5.308440 -13.060439 -0.530056 9.680659 
2.345585 47.757298 -1.575160 -2.197891 -0.077588 -6.718758 0.000000 0.000000 0.000000 15.938375 -1.708984 -0.029575 -0.474998 0.896911 3.340351 -3.914266 3.179675 2.846627 1.992188 -2.001953 0.000341 -76.965256 -12.320044 -18.947922 -7.031352 -0.300344 -0.019384 -16.537535 3.638175 34.351250 -2.001953 1.992188 0.000000 82.872574 11.167648 -36.864620 -0.566406 0.224610 -0.000038 -10.829840 3.690134 50.278915 -11.421536 -3.758839 -0.823768 22.340004 -0.390286 5.306265 -8.987339 0.183172 3.638739 -13.571619 -8.182098 -0.534880 33.455807 -0.019757 -9.716640 -15.579307 -0.965334 11.102837 
2.515874 47.714508 -1.626285 -2.707573 -0.435858 -7.334217 0.000000 0.000000 0.000000 16.505011 -1.621093 -0.039323 -0.453391 0.916354 3.398939 -2.649692 3.472282 2.847222 1.992188 -2.001953 0.000341 -78.810829 -12.167501 -18.618202 -7.548980 -0.298886 -0.029043 -16.809214 4.001313 33.613602 -2.001953 1.992188 0.000000 83.136047 10.710949 -37.231083 -0.566406 0.224610 -0.000038 -10.431246 2.406994 50.107372 -11.194905 -3.650830 -0.754061 22.899267 -0.380725 5.848859 -9.248999 0.193493 3.690422 -12.144486 -7.634253 -0.304022 34.269127 -0.095494 -14.060151 -16.296288 -1.359525 12.650474 
